<svg width="56" height="61" viewBox="0 0 56 61" fill="none" xmlns="http://www.w3.org/2000/svg">
<path d="M37.5704 37.1167C37.5704 36.8741 37.4519 36.7528 37.4519 36.6315V36.5102C37.4519 36.3889 37.4519 36.2676 37.3333 36.1463C37.3333 36.025 37.3333 35.9037 37.2148 35.9037C37.0963 35.5398 36.9778 35.1759 36.8593 34.812C36.8593 34.6907 36.7407 34.5694 36.7407 34.3269C36.7407 34.3269 36.7407 34.3269 36.7407 34.2056C36.7407 34.0843 36.6222 33.963 36.6222 33.8417C36.6222 33.7204 36.5037 33.7204 36.5037 33.5991C36.3852 33.4778 36.3852 33.2352 36.2667 33.1139C36.1482 32.9926 36.1482 32.75 36.0296 32.6287C35.9111 32.5074 35.9111 32.3861 35.7926 32.2648C35.6741 32.1435 35.6741 32.0222 35.5556 31.9009C35.437 31.7796 35.437 31.6583 35.3185 31.537C35.2 31.2944 34.963 31.0519 34.8444 30.688C34.7259 30.5667 34.6074 30.3241 34.4889 30.2028C34.3704 30.0815 34.2519 29.8389 34.1333 29.7176C34.1333 29.7176 34.1333 29.7176 34.1333 29.5963C34.0148 29.475 33.8963 29.3537 33.7778 29.2324L33.6593 29.1111C33.5407 28.9898 33.4222 28.8685 33.3037 28.7472C33.1852 28.6259 33.0667 28.5046 32.9482 28.3833C32.5926 28.0194 32.237 27.7769 31.8815 27.413C31.763 27.413 31.763 27.2917 31.6444 27.2917C31.5259 27.1704 31.4074 27.1704 31.2889 27.0491C30.9333 26.8065 30.6963 26.5639 30.3407 26.3213C30.2222 26.2 29.9852 26.0787 29.8667 25.9574C29.6296 25.8361 29.2741 25.5935 29.037 25.4722C28.9185 25.3509 28.8 25.3509 28.6815 25.2296C28.6815 25.2296 28.563 25.2296 28.563 25.1083C28.4444 25.1083 28.3259 24.987 28.2074 24.987C27.8519 24.7444 27.3778 24.6231 26.9037 24.5019C26.7852 24.5019 26.6667 24.3806 26.4296 24.3806C28.563 21.8333 29.7481 18.437 29.7481 14.7981C29.7481 6.79259 23.1111 0 14.9333 0H0V58.2222H20.9778C21.0963 58.2222 21.2148 58.2222 21.3333 58.2222C21.4519 58.2222 21.5704 58.2222 21.6889 58.2222C21.6889 58.2222 21.6889 58.2222 21.8074 58.2222C21.9259 58.2222 22.0444 58.2222 22.163 58.2222C22.2815 58.2222 22.4 58.2222 22.5185 58.2222C22.637 58.2222 22.7556 58.2222 22.8741 58.2222C22.9926 58.2222 22.9926 58.2222 23.1111 58.2222C23.4667 58.2222 23.7037 58.1009 24.0593 58.1009C24.1778 58.1009 24.2963 58.1009 24.5333 57.9796C24.6519 57.9796 24.8889 57.8583 25.0074 57.8583C25.1259 57.8583 25.2444 57.737 25.4815 57.737C25.6 57.737 25.6 57.737 25.7185 57.737C25.837 57.737 25.9556 57.737 25.9556 57.6157C26.0741 57.6157 26.0741 57.6157 26.0741 57.6157C26.3111 57.4944 26.6667 57.3731 26.9037 57.3731C27.0222 57.3731 27.2593 57.2519 27.3778 57.1306C27.4963 57.1306 27.6148 57.0093 27.7333 57.0093C27.9704 56.888 28.0889 56.888 28.3259 56.7667C28.4444 56.6454 28.563 56.6454 28.6815 56.5241C29.3926 56.1602 29.9852 55.7963 30.6963 55.3111C30.8148 55.3111 30.8148 55.1898 30.9333 55.0685C31.2889 54.8259 31.6444 54.462 32 54.2194C32.1185 54.0981 32.237 53.9769 32.3556 53.9769C32.7111 53.613 32.9482 53.3704 33.3037 53.0065C33.4222 52.8852 33.5407 52.7639 33.6593 52.6426C33.7778 52.5213 33.8963 52.4 33.8963 52.2787C34.0148 52.1574 34.1333 52.0361 34.1333 51.9148C34.3704 51.6722 34.6074 51.3083 34.7259 51.0657C34.8444 50.9444 34.8444 50.8232 34.963 50.8232C35.0815 50.5806 35.2 50.4593 35.3185 50.2167C35.437 50.0954 35.437 49.9741 35.5556 49.8528C35.6741 49.7315 35.6741 49.6102 35.7926 49.4889L35.9111 49.3676C35.9111 49.2463 36.0296 49.125 36.0296 49.0037C36.1482 48.6398 36.3852 48.2759 36.5037 48.0333C36.6222 47.912 36.6222 47.7907 36.7407 47.5481C36.8593 47.3056 36.9778 47.063 36.9778 46.6991C36.9778 46.5778 36.9778 46.5778 37.0963 46.4565C37.0963 46.3352 37.2148 46.2139 37.2148 46.0926C37.2148 45.9713 37.3333 45.85 37.3333 45.7287V45.6074C37.3333 45.4861 37.3333 45.3648 37.4519 45.2435C37.4519 45.0009 37.5704 44.8796 37.5704 44.637V38.087C37.5704 37.4806 37.5704 37.3593 37.5704 37.1167ZM16.8296 7.64167C16.9481 7.64167 17.0667 7.64167 17.0667 7.76296C17.1852 7.76296 17.1852 7.76296 17.3037 7.88426H17.4222C17.5407 7.88426 17.5407 8.00556 17.6593 8.00556C17.7778 8.00556 17.8963 8.12685 17.8963 8.12685C18.0148 8.12685 18.0148 8.24815 18.1333 8.24815C18.2519 8.24815 18.2519 8.24815 18.3704 8.36944H18.4889C18.6074 8.36944 18.6074 8.49074 18.7259 8.49074C18.7259 8.49074 18.8444 8.49074 18.8444 8.61204C18.963 8.73333 19.0815 8.73333 19.2 8.85463L19.3185 8.97593L19.437 9.09722C19.5556 9.09722 19.5556 9.21852 19.6741 9.21852C19.7926 9.21852 19.7926 9.33982 19.9111 9.46111C20.0296 9.46111 20.0296 9.58241 20.1481 9.58241C20.2667 9.7037 20.3852 9.825 20.5037 9.9463L20.6222 10.0676C20.6222 10.0676 20.6222 10.0676 20.7407 10.1889L20.8593 10.3102C20.8593 10.3102 20.8593 10.3102 20.9778 10.4315L21.0963 10.5528C21.2148 10.6741 21.2148 10.6741 21.2148 10.7954L21.3333 10.9167L21.4519 11.038C21.4519 11.1593 21.5704 11.1593 21.5704 11.2806C21.5704 11.4019 21.6889 11.4019 21.6889 11.5231C21.8074 11.7657 21.9259 11.887 22.0444 12.1296C22.0444 12.2509 22.163 12.2509 22.163 12.3722C22.163 12.3722 22.163 12.4935 22.2815 12.4935C22.2815 12.6148 22.4 12.6148 22.4 12.7361C22.4 12.8574 22.5185 12.9787 22.5185 13.1C22.5185 13.2213 22.5185 13.2213 22.637 13.3426C22.7556 13.5852 22.7556 13.9491 22.8741 14.1917C22.8741 14.4343 22.9926 14.6769 22.9926 14.9194C22.9926 15.0407 22.9926 15.162 22.9926 15.162C22.9926 15.2833 22.9926 15.4046 22.9926 15.6472C22.9926 15.7685 22.9926 15.8898 22.9926 16.0111C22.9926 16.1324 22.9926 16.2537 22.9926 16.2537C22.9926 16.375 22.9926 16.4963 22.9926 16.6176C22.9926 16.7389 22.9926 16.8602 22.8741 17.1028C22.8741 17.2241 22.8741 17.2241 22.8741 17.3454C22.8741 17.4667 22.8741 17.4667 22.8741 17.588C22.8741 17.7093 22.8741 17.7093 22.8741 17.8306C22.7556 18.0731 22.7556 18.3157 22.637 18.5583C22.637 18.6796 22.5185 18.6796 22.5185 18.8009C22.4 19.0435 22.2815 19.2861 22.163 19.5287C22.163 19.65 22.0444 19.65 22.0444 19.7713C21.9259 19.8926 21.9259 20.0139 21.8074 20.1352C21.6889 20.2565 21.6889 20.3778 21.5704 20.4991C21.4519 20.7417 21.2148 20.9843 21.0963 21.1056C20.9778 21.2269 20.8593 21.3481 20.8593 21.3481C20.7407 21.4694 20.6222 21.5907 20.6222 21.5907C20.3852 21.712 20.2667 21.9546 20.0296 22.0759C19.9111 22.1972 19.7926 22.1972 19.7926 22.3185C19.7926 22.3185 19.7926 22.3185 19.6741 22.3185C19.5556 22.3185 19.5556 22.4398 19.437 22.4398C19.437 22.4398 19.437 22.4398 19.3185 22.4398C19.2 22.5611 19.0815 22.5611 18.963 22.6824C18.8444 22.6824 18.7259 22.8037 18.6074 22.8037C18.4889 22.8037 18.3704 22.925 18.2519 22.925H18.1333C18.0148 22.925 17.8963 23.0463 17.8963 23.0463C17.8963 23.0463 17.8963 23.0463 17.7778 23.0463C17.6593 23.0463 17.6593 23.0463 17.5407 23.1676C17.4222 23.1676 17.4222 23.1676 17.3037 23.1676C17.1852 23.1676 17.0667 23.1676 16.9481 23.2889H7.58518V7.52037H16.5926C16.7111 7.64167 16.7111 7.64167 16.8296 7.64167ZM30.5778 42.2111C30.5778 42.3324 30.5778 42.575 30.4593 42.6963C30.4593 42.8176 30.4593 42.8176 30.4593 42.9389C30.4593 43.0602 30.4593 43.0602 30.4593 43.1815C30.4593 43.3028 30.4593 43.3028 30.3407 43.4241C30.2222 43.5454 30.3407 43.5454 30.2222 43.6667C30.2222 43.788 30.2222 43.788 30.1037 43.9093C30.1037 44.0306 30.1037 44.0306 29.9852 44.1519C29.9852 44.1519 29.9852 44.1519 29.9852 44.2731C29.9852 44.3944 29.8667 44.5157 29.8667 44.637C29.8667 44.7583 29.7481 44.8796 29.7481 45.0009C29.7481 45.1222 29.6296 45.2435 29.6296 45.3648C29.6296 45.4861 29.5111 45.6074 29.5111 45.7287C29.5111 45.7287 29.5111 45.7287 29.5111 45.85C29.3926 45.9713 29.3926 46.0926 29.2741 46.2139C29.2741 46.3352 29.1556 46.3352 29.1556 46.4565L29.037 46.5778C28.9185 46.6991 28.9185 46.8204 28.8 46.8204C28.6815 46.9417 28.6815 47.063 28.563 47.063C28.4444 47.1843 28.3259 47.4269 28.2074 47.5481C28.0889 47.6694 28.0889 47.7907 27.9704 47.7907C27.3778 48.3972 26.7852 48.8824 26.1926 49.2463C26.0741 49.2463 26.0741 49.3676 25.9556 49.3676C25.837 49.4889 25.7185 49.4889 25.6 49.4889C25.4815 49.6102 25.2444 49.7315 25.1259 49.7315C25.0074 49.7315 25.0074 49.8528 24.8889 49.8528C24.7704 49.8528 24.6519 49.9741 24.5333 49.9741C24.4148 49.9741 24.4148 50.0954 24.2963 50.0954C23.8222 50.2167 23.4667 50.4593 22.9926 50.4593C22.8741 50.4593 22.8741 50.4593 22.7556 50.4593C22.637 50.4593 22.637 50.4593 22.5185 50.4593C22.4 50.4593 22.4 50.4593 22.2815 50.4593H22.163C22.0444 50.4593 21.9259 50.4593 21.9259 50.4593C21.6889 50.4593 21.4519 50.4593 21.2148 50.4593C21.0963 50.4593 20.9778 50.4593 20.8593 50.4593H7.58518V30.8093H20.5037C20.9778 30.8093 21.3333 30.8093 21.6889 30.9306H21.8074C21.9259 30.9306 22.0444 30.9306 22.163 30.9306H22.2815H22.4C22.5185 30.9306 22.7556 31.0519 22.8741 31.0519C22.9926 31.0519 22.9926 31.0519 23.1111 31.1731C23.2296 31.1731 23.2296 31.1731 23.3481 31.2944C23.4667 31.2944 23.4667 31.2944 23.5852 31.4157C23.7037 31.4157 23.7037 31.4157 23.8222 31.537C23.9407 31.537 23.9407 31.537 24.0593 31.6583C24.0593 31.6583 24.1778 31.6583 24.1778 31.7796C24.2963 31.7796 24.4148 31.9009 24.5333 31.9009C24.6519 31.9009 24.6519 31.9009 24.7704 32.0222C24.8889 32.0222 25.0074 32.1435 25.1259 32.1435C25.2444 32.1435 25.363 32.2648 25.4815 32.3861C25.6 32.5074 25.7185 32.5074 25.837 32.6287C25.9556 32.75 26.0741 32.75 26.1926 32.8713C26.3111 32.9926 26.4296 32.9926 26.5482 33.1139C26.6667 33.2352 26.7852 33.2352 26.9037 33.3565C27.0222 33.4778 27.1407 33.5991 27.2593 33.7204L27.3778 33.8417C28.0889 34.5694 28.8 35.5398 29.2741 36.5102C29.3926 36.6315 29.3926 36.7528 29.5111 36.9954C29.5111 37.1167 29.6296 37.1167 29.6296 37.238C29.6296 37.3593 29.7481 37.3593 29.7481 37.4806C29.7481 37.6019 29.8667 37.7231 29.8667 37.9657C29.8667 38.087 29.8667 38.087 29.9852 38.2083C29.9852 38.3296 30.1037 38.5722 30.1037 38.6935C30.2222 38.9361 30.2222 39.1787 30.2222 39.5426C30.2222 39.6639 30.2222 39.6639 30.2222 39.7852C30.2222 39.9065 30.2222 39.9065 30.2222 40.0278C30.2222 40.1491 30.2222 40.1491 30.2222 40.2704C30.2222 40.6343 30.2222 40.9981 30.2222 41.362C30.2222 41.4833 30.2222 41.4833 30.2222 41.6046C30.5778 41.6046 30.5778 41.9685 30.5778 42.2111Z" fill="black"/>
<path d="M14.9333 0C13.037 0 11.1408 0.363889 9.48149 1.09167C8.53335 1.45556 7.5852 1.94074 6.75557 2.54722C2.72594 5.21574 0.11853 9.825 0.11853 15.162C0.11853 21.2269 3.67409 26.5639 8.8889 28.8685C10.7852 29.7176 12.8 30.2028 14.9333 30.2028C16 30.2028 16.9482 30.0815 18.0148 29.8389C20.5037 29.3537 22.7556 28.1407 24.6519 26.5639C25.363 25.9574 25.9556 25.3509 26.5482 24.6231C28.6815 22.0759 29.8667 18.6796 29.8667 15.0407C29.7482 6.79259 23.1111 0 14.9333 0ZM7.5852 23.4102V7.64167H16.5926C16.7111 7.64167 16.7111 7.64167 16.8296 7.64167C16.9482 7.64167 17.0667 7.64167 17.0667 7.76296C17.1852 7.76296 17.1852 7.76296 17.3037 7.88426H17.4222C17.5408 7.88426 17.5408 8.00556 17.6593 8.00556C17.7778 8.00556 17.8963 8.12685 17.8963 8.12685C18.0148 8.12685 18.0148 8.24815 18.1333 8.24815C18.2519 8.24815 18.2519 8.24815 18.3704 8.36944H18.4889C18.6074 8.36944 18.6074 8.49074 18.7259 8.49074C18.7259 8.49074 18.8445 8.49074 18.8445 8.61204C18.963 8.73333 19.0815 8.73333 19.2 8.85463L19.3185 8.97593L19.437 9.09722C19.5556 9.09722 19.5556 9.21852 19.6741 9.21852C19.7926 9.21852 19.7926 9.33982 19.9111 9.46111C20.0296 9.46111 20.0296 9.58241 20.1482 9.58241C20.2667 9.7037 20.3852 9.825 20.5037 9.9463L20.6222 10.0676C20.6222 10.0676 20.6222 10.0676 20.7408 10.1889L20.8593 10.3102C20.8593 10.3102 20.8593 10.3102 20.9778 10.4315L21.0963 10.5528C21.2148 10.6741 21.2148 10.6741 21.2148 10.7954L21.3333 10.9167L21.4519 11.038C21.4519 11.1593 21.5704 11.1593 21.5704 11.2806C21.5704 11.4019 21.6889 11.4019 21.6889 11.5231C21.8074 11.7657 21.9259 11.887 22.0445 12.1296C22.0445 12.2509 22.163 12.2509 22.163 12.3722C22.163 12.3722 22.163 12.4935 22.2815 12.4935C22.2815 12.6148 22.4 12.6148 22.4 12.7361C22.4 12.8574 22.5185 12.9787 22.5185 13.1C22.5185 13.2213 22.5185 13.2213 22.637 13.3426C22.7556 13.5852 22.7556 13.9491 22.8741 14.1917C22.8741 14.4343 22.9926 14.6769 22.9926 14.9194C22.9926 15.0407 22.9926 15.162 22.9926 15.162C22.9926 15.2833 22.9926 15.4046 22.9926 15.6472C22.9926 15.7685 22.9926 15.8898 22.9926 16.0111C22.9926 16.1324 22.9926 16.2537 22.9926 16.2537C22.9926 16.375 22.9926 16.4963 22.9926 16.6176C22.9926 16.7389 22.9926 16.8602 22.8741 17.1028C22.8741 17.2241 22.8741 17.2241 22.8741 17.3454C22.8741 17.4667 22.8741 17.4667 22.8741 17.588C22.8741 17.7093 22.8741 17.7093 22.8741 17.8306C22.7556 18.0731 22.7556 18.3157 22.637 18.5583C22.637 18.6796 22.5185 18.6796 22.5185 18.8009C22.4 19.0435 22.2815 19.2861 22.163 19.5287C22.163 19.65 22.0445 19.65 22.0445 19.7713C21.9259 19.8926 21.9259 20.0139 21.8074 20.1352C21.6889 20.2565 21.6889 20.3778 21.5704 20.4991C21.4519 20.7417 21.2148 20.9843 21.0963 21.1056C20.9778 21.2269 20.8593 21.3481 20.8593 21.3481C20.7408 21.4694 20.6222 21.5907 20.6222 21.5907C20.3852 21.712 20.2667 21.9546 20.0296 22.0759C19.9111 22.1972 19.7926 22.1972 19.7926 22.3185C19.7926 22.3185 19.7926 22.3185 19.6741 22.3185C19.5556 22.3185 19.5556 22.4398 19.437 22.4398C19.437 22.4398 19.437 22.4398 19.3185 22.4398C19.2 22.5611 19.0815 22.5611 18.963 22.6824C18.8445 22.6824 18.7259 22.8037 18.6074 22.8037C18.4889 22.8037 18.3704 22.925 18.2519 22.925H18.1333C18.0148 22.925 17.8963 23.0463 17.8963 23.0463C17.8963 23.0463 17.8963 23.0463 17.7778 23.0463C17.6593 23.0463 17.6593 23.0463 17.5408 23.1676C17.4222 23.1676 17.4222 23.1676 17.3037 23.1676C17.1852 23.1676 17.0667 23.1676 16.9482 23.2889H7.5852V23.4102Z" fill="black"/>
<path d="M37.6888 37.7233C37.6888 37.4807 37.5703 37.3594 37.5703 37.1168V36.9955C37.5703 36.8742 37.4518 36.7529 37.4518 36.5104V36.3891C37.4518 36.2678 37.4518 36.1465 37.3333 36.0252C37.3333 35.9039 37.3333 35.7826 37.2148 35.7826C37.0962 35.4187 36.9777 35.0548 36.8592 34.6909C36.8592 34.5696 36.7407 34.4483 36.7407 34.2057C36.7407 34.2057 36.7407 34.2057 36.7407 34.0844C36.7407 33.9631 36.6222 33.8418 36.6222 33.7205C36.6222 33.5992 36.5036 33.5992 36.5036 33.478C36.3851 33.3567 36.3851 33.1141 36.2666 32.9928C36.1481 32.8715 36.1481 32.6289 36.0296 32.5076C35.911 32.3863 35.911 32.265 35.7925 32.1437C35.674 32.0224 35.674 31.9011 35.5555 31.7798C35.437 31.6585 35.437 31.5372 35.3185 31.4159C35.1999 31.1733 34.9629 30.9307 34.8444 30.5668C34.7259 30.4455 34.6073 30.2029 34.4888 30.0817C34.3703 29.9604 34.2518 29.7178 34.1333 29.5965C34.1333 29.5965 34.1333 29.5965 34.1333 29.4752C34.0148 29.3539 33.8962 29.2326 33.7777 29.1113L33.6592 28.99C33.5407 28.8687 33.4222 28.7474 33.3036 28.6261C33.1851 28.5048 33.0666 28.3835 32.9481 28.2622C32.5925 27.8983 32.237 27.6557 31.8814 27.2918C31.7629 27.2918 31.7629 27.1705 31.6444 27.1705C31.5259 27.0492 31.4073 27.0492 31.2888 26.928C30.9333 26.6854 30.6962 26.4428 30.3407 26.2002C30.2222 26.0789 29.9851 25.9576 29.8666 25.8363C29.6296 25.715 29.274 25.4724 29.037 25.3511C28.9185 25.2298 28.7999 25.2298 28.6814 25.1085C28.6814 25.1085 28.5629 25.1085 28.5629 24.9872C28.4444 24.9872 28.3259 24.8659 28.2073 24.8659C27.8518 24.6233 27.3777 24.502 26.9036 24.3807C26.7851 24.3807 26.6666 24.2594 26.4296 24.2594C25.4814 23.8955 24.5333 23.6529 23.4666 23.5317C22.637 23.4104 21.8073 23.2891 20.8592 23.2891C19.0814 23.2891 17.3036 23.5317 15.6444 24.1381C13.037 24.9872 10.6666 26.4428 8.65179 28.3835C5.57031 31.5372 3.67401 35.7826 3.67401 40.5131C3.91105 50.4594 11.4962 58.2224 20.9777 58.2224C21.0962 58.2224 21.2148 58.2224 21.3333 58.2224C21.4518 58.2224 21.5703 58.2224 21.6888 58.2224C21.6888 58.2224 21.6888 58.2224 21.8073 58.2224C21.9259 58.2224 22.0444 58.2224 22.1629 58.2224C22.2814 58.2224 22.3999 58.2224 22.5185 58.2224C22.637 58.2224 22.7555 58.2224 22.874 58.2224C22.9925 58.2224 22.9925 58.2224 23.111 58.2224C23.4666 58.2224 23.7036 58.1011 24.0592 58.1011C24.1777 58.1011 24.2962 58.1011 24.5333 57.9798C24.6518 57.9798 24.8888 57.8585 25.0073 57.8585C25.1259 57.8585 25.2444 57.7372 25.4814 57.7372C25.5999 57.7372 25.5999 57.7372 25.7185 57.7372C25.837 57.7372 25.9555 57.7372 25.9555 57.6159C26.074 57.6159 26.074 57.6159 26.074 57.6159C26.311 57.4946 26.6666 57.3733 26.9036 57.3733C27.0222 57.3733 27.2592 57.252 27.3777 57.1307C27.4962 57.1307 27.6148 57.0094 27.7333 57.0094C27.9703 56.8881 28.0888 56.8881 28.3259 56.7668C28.4444 56.6455 28.5629 56.6455 28.6814 56.5242C29.3925 56.1604 29.9851 55.7965 30.6962 55.3113C30.8148 55.3113 30.8148 55.19 30.9333 55.0687C31.2888 54.8261 31.6444 54.4622 31.9999 54.2196C32.1185 54.0983 32.237 53.977 32.3555 53.977C32.7111 53.6131 32.9481 53.3705 33.3036 53.0067C33.4222 52.8854 33.5407 52.7641 33.6592 52.6428C33.7777 52.5215 33.8962 52.4002 33.8962 52.2789C34.0148 52.1576 34.1333 52.0363 34.1333 51.915C34.3703 51.6724 34.6073 51.3085 34.7259 51.0659C34.8444 50.9446 34.8444 50.8233 34.9629 50.8233C35.0814 50.5807 35.1999 50.4594 35.3185 50.2168C35.437 50.0955 35.437 49.9742 35.5555 49.8529C35.674 49.7316 35.674 49.6104 35.7925 49.4891L35.911 49.3678C35.911 49.2465 36.0296 49.1252 36.0296 49.0039C36.1481 48.64 36.3851 48.2761 36.5036 48.0335C36.6222 47.9122 36.6222 47.7909 36.7407 47.5483C36.8592 47.3057 36.9777 47.0631 36.9777 46.6992C36.9777 46.5779 36.9777 46.5779 37.0962 46.4567C37.0962 46.3354 37.2148 46.2141 37.2148 46.0928C37.2148 45.9715 37.3333 45.8502 37.3333 45.7289V45.6076C37.3333 45.4863 37.3333 45.365 37.4518 45.2437C37.4518 45.0011 37.5703 44.8798 37.5703 44.6372C37.6888 44.2733 37.6888 43.7881 37.8073 43.4242C37.9259 42.6965 37.9259 42.09 37.9259 41.3622C37.9259 39.7854 37.8073 38.6937 37.6888 37.7233ZM30.5777 42.2113C30.5777 42.3326 30.5777 42.5752 30.4592 42.6965C30.4592 42.8178 30.4592 42.8178 30.4592 42.9391C30.4592 43.0604 30.4592 43.0604 30.4592 43.1817C30.4592 43.3029 30.4592 43.3029 30.3407 43.4242C30.3407 43.5455 30.3407 43.5455 30.2222 43.6668C30.2222 43.7881 30.2222 43.7881 30.1036 43.9094C30.1036 44.0307 30.1036 44.0307 29.9851 44.152C29.9851 44.152 29.9851 44.152 29.9851 44.2733C29.9851 44.3946 29.8666 44.5159 29.8666 44.6372C29.8666 44.7585 29.7481 44.8798 29.7481 45.0011C29.7481 45.1224 29.6296 45.2437 29.6296 45.365C29.6296 45.4863 29.511 45.6076 29.511 45.7289C29.511 45.7289 29.511 45.7289 29.511 45.8502C29.3925 45.9715 29.3925 46.0928 29.274 46.2141C29.274 46.3354 29.1555 46.4567 29.1555 46.4567L29.037 46.5779C28.9185 46.6992 28.9185 46.8205 28.7999 46.8205C28.6814 46.9418 28.6814 47.0631 28.5629 47.0631C28.4444 47.1844 28.3259 47.427 28.2073 47.5483C28.0888 47.6696 28.0888 47.7909 27.9703 47.7909C27.3777 48.3974 26.7851 48.8826 26.1925 49.2465C26.074 49.2465 26.074 49.3678 25.9555 49.3678C25.837 49.4891 25.7185 49.4891 25.5999 49.4891C25.4814 49.6104 25.2444 49.7317 25.1259 49.7317C25.0073 49.7317 25.0073 49.8529 24.8888 49.8529C24.7703 49.8529 24.6518 49.9742 24.5333 49.9742C24.4148 49.9742 24.4148 50.0955 24.2962 50.0955C23.8222 50.2168 23.4666 50.4594 22.9925 50.4594C22.874 50.4594 22.874 50.4594 22.7555 50.4594C22.637 50.4594 22.637 50.4594 22.5185 50.4594C22.3999 50.4594 22.3999 50.4594 22.2814 50.4594H22.1629C22.0444 50.4594 21.9259 50.4594 21.9259 50.4594C21.6888 50.4594 21.4518 50.4594 21.2148 50.4594C21.0962 50.4594 20.9777 50.4594 20.8592 50.4594H7.58512V30.8094H20.5036C20.9777 30.8094 21.3333 30.8094 21.6888 30.9307H21.8073C21.9259 30.9307 22.0444 30.9307 22.1629 30.9307H22.2814H22.3999C22.5185 30.9307 22.7555 31.052 22.874 31.052C22.9925 31.052 22.9925 31.052 23.111 31.1733C23.2296 31.1733 23.2296 31.1733 23.3481 31.2946C23.4666 31.2946 23.4666 31.2946 23.5851 31.4159C23.7036 31.4159 23.7036 31.4159 23.8222 31.5372C23.9407 31.5372 23.9407 31.5372 24.0592 31.6585C24.0592 31.6585 24.1777 31.6585 24.1777 31.7798C24.2962 31.7798 24.4148 31.9011 24.5333 31.9011C24.6518 31.9011 24.6518 31.9011 24.7703 32.0224C24.8888 32.0224 25.0073 32.1437 25.1259 32.1437C25.2444 32.1437 25.3629 32.265 25.4814 32.3863C25.5999 32.5076 25.7185 32.5076 25.837 32.6289C25.9555 32.7502 26.074 32.7502 26.1925 32.8715C26.311 32.9928 26.4296 32.9928 26.5481 33.1141C26.6666 33.2354 26.7851 33.2354 26.9036 33.3567C27.0222 33.478 27.1407 33.5992 27.2592 33.7205L27.3777 33.8418C28.0888 34.5696 28.7999 35.54 29.274 36.5104C29.3925 36.6317 29.3925 36.7529 29.511 36.9955C29.511 37.1168 29.6296 37.1168 29.6296 37.2381C29.6296 37.3594 29.7481 37.3594 29.7481 37.4807C29.7481 37.602 29.8666 37.7233 29.8666 37.9659C29.8666 38.0872 29.8666 38.0872 29.9851 38.2085C29.9851 38.3298 30.1036 38.5724 30.1036 38.6937C30.2222 38.9363 30.2222 39.1789 30.2222 39.5428C30.2222 39.6641 30.2222 39.6641 30.2222 39.7854C30.2222 39.9067 30.2222 39.9067 30.2222 40.0279C30.2222 40.1492 30.2222 40.1492 30.2222 40.2705C30.2222 40.6344 30.2222 40.9983 30.2222 41.3622C30.2222 41.4835 30.2222 41.4835 30.2222 41.6048C30.5777 41.6048 30.5777 41.9687 30.5777 42.2113Z" fill="black"/>
<path d="M27.4963 33.5992C25.7185 31.9011 23.2296 30.8094 20.6222 30.8094H18.3704L18.0148 29.839L15.8815 24.502L15.4074 23.4103H16.7111C18.8444 22.9251 20.7407 21.5909 21.8074 19.6501L22.8741 22.3187L23.4667 23.8955L24.5333 26.564L27.4963 33.5992Z" fill="black"/>
<path d="M37.9259 40.9983C37.9259 41.7261 37.9259 42.3326 37.8074 43.0604L37.5703 43.5456L34.6074 50.9446L34.2518 51.6724C34.1333 51.7937 34.0148 51.915 34.0148 52.0363C33.8963 52.1576 33.7777 52.2789 33.7777 52.4002C33.6592 52.5215 33.5407 52.6428 33.4222 52.7641C33.0666 53.128 32.8296 53.3706 32.474 53.7344C32.3555 53.8557 32.237 53.977 32.1185 53.977C31.7629 54.3409 31.4074 54.5835 31.0518 54.8261C30.9333 54.9474 30.9333 54.9474 30.8148 55.0687C30.2222 55.5539 29.5111 55.9178 28.8 56.2817L26.6666 50.9446L27.8518 48.0335C27.9703 47.9122 27.9703 47.7909 28.0888 47.7909C28.2074 47.6696 28.3259 47.5483 28.4444 47.3057C28.5629 47.1845 28.5629 47.0632 28.6814 47.0632C28.8 46.9419 28.8 46.9419 28.9185 46.8206L29.037 46.6993C29.037 46.578 29.1555 46.578 29.1555 46.4567C29.274 46.3354 29.274 46.2141 29.3926 46.0928V45.9715C29.5111 45.8502 29.5111 45.7289 29.5111 45.6076C29.6296 45.4863 29.6296 45.365 29.6296 45.2437C29.6296 45.1224 29.7481 45.0011 29.7481 44.8798C29.7481 44.7585 29.8666 44.6372 29.8666 44.5159C29.8666 44.5159 29.8666 44.5159 29.8666 44.3946C29.8666 44.2733 29.8666 44.2733 29.9851 44.152C29.9851 44.0307 29.9851 44.0307 30.1037 43.9095C30.1037 43.7882 30.1037 43.7882 30.2222 43.6669C30.3407 43.5456 30.2222 43.5456 30.3407 43.4243C30.3407 43.303 30.3407 43.303 30.3407 43.1817C30.3407 43.0604 30.3407 43.0604 30.3407 42.9391C30.3407 42.8178 30.3407 42.5752 30.4592 42.4539C30.4592 42.09 30.5777 41.7261 30.5777 41.4835L34.8444 31.1733C35.0814 31.4159 35.2 31.6585 35.3185 32.0224C35.437 32.1437 35.437 32.265 35.5555 32.3863C35.674 32.5076 35.674 32.6289 35.7926 32.7502C35.9111 32.8715 35.9111 32.9928 36.0296 33.1141C36.1481 33.2354 36.1481 33.478 36.2666 33.5993C36.3851 33.7206 36.3851 33.8419 36.5037 34.0845C36.5037 34.2057 36.6222 34.2057 36.6222 34.327C36.6222 34.4483 36.7407 34.5696 36.7407 34.6909C36.7407 34.6909 36.7407 34.6909 36.7407 34.8122C36.8592 34.9335 36.8592 35.0548 36.8592 35.2974C36.9777 35.6613 37.0963 36.0252 37.2148 36.3891C37.2148 36.5104 37.3333 36.6317 37.3333 36.6317C37.3333 36.753 37.4518 36.8743 37.4518 36.9956V37.1169C37.4518 37.2382 37.5703 37.3595 37.5703 37.602V37.7233C37.5703 37.8446 37.6888 38.0872 37.6888 38.3298C37.8074 38.6937 37.9259 39.7854 37.9259 40.9983Z" fill="black"/>
<path d="M55.1111 1.09176L39.3482 39.3001C38.9926 35.5399 37.6889 32.1436 35.4371 29.3538L47.0519 0.970459H55.1111V1.09176Z" fill="black"/>
<path d="M29.3926 57.6159C30.5778 57.0094 31.7629 56.1604 32.8296 55.3113L30.9333 60.0418L30.5778 60.6483L30.3407 60.0418L29.3926 57.6159Z" fill="black"/>
<path d="M25.4815 48.0334L18.963 32.2649C19.437 32.1436 19.7926 32.1436 20.2667 32.1436C25.0074 32.1436 28.9185 36.025 28.9185 40.8769C28.9185 43.9093 27.6148 46.4565 25.4815 48.0334Z" fill="black"/>
<path d="M16.5926 7.6418H8.77033L6.75552 2.54735L6.39996 1.69828V1.0918H14.1037L16.8296 7.76309C16.7111 7.6418 16.7111 7.6418 16.5926 7.6418Z" fill="black"/>
<path d="M15.2889 21.7123H14.6963L10.5482 11.5234L9.60004 9.21875H15.2889C16.1186 9.21875 16.9482 9.34005 17.7778 9.70394L21.0963 17.7095C20.0297 20.1354 17.8963 21.7123 15.2889 21.7123Z" fill="black"/>
<path d="M27.4963 33.5992C25.7185 31.9011 23.2296 30.8094 20.6222 30.8094H18.3704L18.0148 29.839L15.8815 24.502L15.4074 23.4103H16.7111C18.8444 22.9251 20.7407 21.5909 21.8074 19.6501L22.8741 22.3187L23.4667 23.8955L24.5333 26.564L27.4963 33.5992Z" fill="black" stroke="black" stroke-linecap="round"/>
<path d="M34.6074 50.9445L34.2518 51.6723C34.1333 51.7936 34.0148 51.9149 34.0148 52.0362C33.8963 52.1575 33.7777 52.2788 33.7777 52.4001C33.6592 52.5214 33.5407 52.6427 33.4222 52.764C33.0666 53.1278 32.8296 53.3704 32.474 53.7343C32.3555 53.8556 32.237 53.9769 32.1185 53.9769C31.7629 54.3408 31.4074 54.5834 31.0518 54.826C30.9333 54.9473 30.9333 54.9473 30.8148 55.0686C30.2222 55.5538 29.5111 55.9177 28.8 56.2815L26.6666 50.9445L26.074 49.489C26.7851 49.0038 27.3777 48.5186 27.8518 48.0334C27.9703 47.9121 27.9703 47.7908 28.0889 47.7908C28.2074 47.6695 28.3259 47.5482 28.4444 47.3056C28.5629 47.1843 28.5629 47.063 28.6814 47.063C28.8 46.9417 28.8 46.9417 28.9185 46.8204L29.037 46.6991C29.037 46.5778 29.1555 46.5778 29.1555 46.4565C29.274 46.3352 29.274 46.214 29.3926 46.0927V45.9714C29.5111 45.8501 29.5111 45.7288 29.5111 45.6075C29.6296 45.4862 29.6296 45.3649 29.6296 45.2436C29.6296 45.1223 29.7481 45.001 29.7481 44.8797C29.7481 44.7584 29.8666 44.6371 29.8666 44.5158C29.8666 44.5158 29.8666 44.5158 29.8666 44.3945C29.8666 44.2732 29.8666 44.2732 29.9851 44.1519C29.9851 44.0306 29.9851 44.0306 30.1037 43.9093C30.1037 43.788 30.1037 43.788 30.2222 43.6667C30.3407 43.5454 30.2222 43.5454 30.3407 43.4241C30.3407 43.3028 30.3407 43.3028 30.3407 43.1815C30.3407 43.0602 30.3407 43.0603 30.3407 42.939C30.3407 42.8177 30.3407 42.5751 30.4592 42.4538C30.4592 42.0899 30.5777 41.726 30.5777 41.4834L34.6074 50.9445Z" fill="black" stroke="black" stroke-linecap="round"/>
</svg>
